<svg fill="#1C2033" width="52" height="52" viewBox="0 0 64 64" xmlns="http://www.w3.org/2000/svg"><path fill-rule="evenodd" clip-rule="evenodd" d="M32.3641 19.8496C14.8872 19.8496 0.738281 25.2996 0.738281 32.0096C0.738281 38.7196 14.8872 44.1496 32.3641 44.1496C49.841 44.1496 63.9703 38.7196 63.9703 32.0096C63.9703 25.2996 49.8214 19.8496 32.3641 19.8496ZM32.3641 42.8996C15.606 42.8996 1.97891 38.0496 1.97891 32.0096C1.97891 25.9696 15.5961 21.0796 32.3641 21.0796C49.1321 21.0796 62.7691 25.9896 62.7691 32.0096C62.7691 38.0296 49.1715 42.8996 32.3641 42.8996ZM44.9967 31.4396C44.278 31.3596 43.382 31.9796 42.6534 32.8896C42.2891 33.3496 41.8952 34.2196 41.8361 34.7296C41.7574 35.2496 41.8952 35.7696 42.0823 35.9096C42.2694 36.0596 43.0767 36.4896 44.3469 35.1896C45.0657 34.4696 45.7549 33.2796 45.7549 33.2796L45.5284 33.2196C45.9617 32.4096 45.8731 31.5396 44.9967 31.4396ZM32.3641 21.9796C16.0884 21.9796 2.94381 26.4696 2.94381 31.9996C2.94381 37.5296 16.0983 42.0496 32.3641 42.0496C48.63 42.0496 61.814 37.5496 61.814 31.9996C61.814 26.4496 48.6201 21.9796 32.3641 21.9796ZM18.6189 37.3196C16.8466 37.3196 15.2712 36.1396 15.2318 34.0296C15.2121 32.7496 16.2263 31.1696 18.1266 30.6996C18.3531 30.6996 18.4318 30.7796 18.4318 30.9096C18.4318 30.9896 18.3531 31.0896 18.166 31.1796C17.6146 31.3896 16.6595 32.4896 16.6595 33.4996C16.6595 34.2696 17.1321 35.1196 17.9297 35.2996C18.1463 35.3596 18.3531 35.3396 18.5598 35.3396C20.5389 35.3396 22.7641 33.0796 25.1666 29.6396C24.7826 29.6596 23.1284 29.8496 22.7149 30.3196C22.5278 30.4696 22.4097 30.3796 22.3703 30.2196C22.3703 30.1796 22.4294 30.0296 22.4983 29.9496C23.1481 29.1996 25.1075 29.0396 25.5801 28.9796C27.3327 26.2396 29.5777 24.4996 30.1881 24.3696C30.1783 24.3696 30.1586 24.3696 30.1389 24.3596C28.5734 23.9896 27.1457 23.6796 26.0232 23.6796C22.0847 23.6796 20.3321 25.3996 20.4109 26.9696C20.4503 27.6096 20.9623 28.0296 21.7106 27.8796C22.5278 27.7296 23.67 26.9496 23.9555 26.2596C24.0146 26.1196 24.182 26.0896 24.2411 26.1396C24.3592 26.2396 24.3198 26.3896 24.3198 26.3896C24.2214 27.1996 22.9906 29.4296 20.8737 29.4296C19.6921 29.4296 18.8946 28.3096 18.9143 27.2096C18.934 25.1596 20.9918 23.0896 26.0724 23.0896C27.0275 23.0896 28.1106 23.1696 29.2921 23.3796C30.6607 23.6296 34.0675 24.2096 36.8343 24.2496C37.8583 24.2496 39.158 24.2896 40.2214 24.1296C41.3438 23.9396 41.0977 23.8996 41.5407 23.8996C41.9444 23.8996 41.9444 24.0696 41.9444 24.2296C41.9444 24.8896 39.6601 26.1596 37.7204 26.1596C34.8651 26.1596 31.9014 24.8496 30.3654 24.4196C30.4244 24.4796 30.4638 24.5696 30.4146 24.6896C30.3949 24.7296 30.1881 24.9596 30.1094 25.0196C29.7057 25.3896 28.3174 26.3096 26.801 28.8896C28.022 28.8296 29.4497 28.5796 29.4497 28.5796C29.4497 28.5796 29.3709 28.3096 29.3709 28.0796C29.43 27.1896 29.942 26.6496 30.5918 26.7496C30.9561 26.8096 31.2023 27.1196 31.2023 27.4596C31.2023 27.8096 30.9364 28.3296 30.6706 28.5796C30.4835 28.7196 30.2866 28.8696 30.0404 28.9896C30.0404 29.2196 30.3457 29.3996 30.6115 29.4296C30.5524 29.6596 30.5721 29.7596 30.4737 29.7396C29.8632 29.7396 29.6171 29.1396 29.6171 29.1396C28.7998 29.2896 28.0121 29.3896 26.3974 29.5496C22.3407 36.2196 21.0706 37.3196 18.5894 37.3196H18.6189ZM46.582 36.2196C47.4583 36.1796 49.0731 34.4796 49.4571 34.0696C49.5358 33.9696 49.6835 33.7796 49.7623 33.7796C49.8411 33.7796 50.0084 33.8596 50.0084 33.9896C50.0084 34.0696 49.8214 34.3796 49.6835 34.5696C48.8663 35.6096 47.5174 37.1996 45.9912 37.2396C45.233 37.2396 44.9475 36.9296 44.849 36.3296C44.5044 36.6396 43.3229 37.1796 42.1118 37.1796C41.1174 37.1596 40.7038 36.5596 40.5069 36.0796C40.3198 35.6896 40.2411 35.1096 40.3887 34.5296C39.8374 34.8196 39.3254 34.8596 38.5967 34.8396C37.7401 34.8196 37.2084 34.4296 36.9426 33.4096C35.958 35.2296 35.9186 35.2896 34.9241 37.1996H33.1912L35.4164 33.3696C35.702 32.8496 35.8497 32.4396 35.9481 31.9996C36.0072 31.7496 35.83 31.5196 35.5641 31.4996C35.2786 31.4996 34.8158 31.7896 34.3629 32.2196C34.3629 32.2196 33.2207 33.4596 32.3838 34.7196C31.5863 35.9196 30.2177 37.2896 28.7309 37.2896C27.6478 37.2896 26.673 36.6896 26.4663 35.5296C26.4663 35.5296 26.358 35.7996 25.4029 36.3596C25.3241 36.3996 25.1174 36.5196 25.0583 36.4796C24.8712 36.3196 24.7727 36.1096 24.753 35.9596C24.8121 35.9796 24.9401 35.8796 25.3241 35.5696C26.0823 34.9896 26.2398 34.5296 26.2398 34.5296C26.4269 34.1396 26.7518 33.5196 26.9783 33.0796C27.5887 31.8396 28.6521 30.5696 30.3851 30.5096C30.6706 30.5096 30.7494 30.6296 30.8084 30.7396C30.9758 30.8596 30.9167 31.1096 30.9167 31.1096C29.6958 31.2996 28.8589 32.0196 28.3469 32.7296C28.0417 33.1896 27.7167 33.9296 27.6577 34.4696C27.5395 35.3996 27.9629 36.0196 28.5931 36.1696C29.7746 36.3596 30.7592 35.4896 31.5272 34.1396C31.7241 33.7896 31.8718 32.8796 31.8718 32.3796C31.8718 31.8796 31.606 31.3696 31.3992 31.1596C31.3992 30.8096 31.6257 30.5796 31.8915 30.5796C31.9703 30.5796 32.049 30.5796 32.1377 30.6596C32.5414 31.0696 32.7678 31.8596 32.7678 32.4596C32.7678 32.6696 32.7678 32.8696 32.7284 33.0796C33.5851 32.0196 34.6681 30.6596 35.5051 30.3896C35.6724 30.3096 35.83 30.3096 35.9974 30.3096C37.5235 30.2696 37.3167 31.6796 37.3167 31.6796C38.134 30.7296 38.7051 30.3796 39.4534 30.4196C40.2706 30.4596 40.5561 31.0396 40.5561 31.4996C40.5364 32.0396 40.1426 32.6596 39.4731 32.6796C38.8823 32.6796 38.5377 32.3896 38.3506 31.8496C37.9666 31.9896 37.7795 32.2596 37.7007 32.7996C37.5826 33.4796 38.0847 34.0196 38.7444 34.0196C39.8669 34.0196 40.3592 33.5196 40.7629 33.1496C42.1512 31.8196 42.9291 30.4396 44.9278 30.4596C46.1291 30.4796 46.4343 31.4496 46.641 31.8696L49.27 27.3596H50.8847L46.5229 35.2096C46.4441 35.3796 46.2374 35.6896 46.2571 35.9296C46.2964 36.3196 46.7887 36.2196 46.6017 36.2196H46.582ZM30.4934 28.2096C30.6115 28.0896 30.8183 27.7096 30.7789 27.4596C30.7592 27.3396 30.7001 27.1896 30.5524 27.2096C30.2472 27.2696 30.0601 27.4196 29.9814 27.7296C29.8731 28.0596 29.9223 28.2896 29.9814 28.5396C29.9814 28.5396 30.1783 28.5596 30.4934 28.2096Z"/></svg>